<svg width="200" height="200" viewBox="0 0 200 200" fill="none" xmlns="http://www.w3.org/2000/svg">
  <defs>
    <!-- Golden gradient for crescent -->
    <linearGradient id="gold" x1="0" y1="0" x2="1" y2="1">
      <stop offset="0%" stop-color="#FBD07C"/>
      <stop offset="100%" stop-color="#F7F779"/>
    </linearGradient>

    <!-- Green gradient for heart -->
    <linearGradient id="heartGradient" x1="0" y1="0" x2="1" y2="1">
      <stop offset="0%" stop-color="#3CF597"/>
      <stop offset="100%" stop-color="#00C4D8"/>
    </linearGradient>
  </defs>

  <!-- Crescent - Optimized with best practices:
       - Smooth Bézier curves for elegant transitions
       - Optical balance: slightly thicker in middle, thinner at tips
       - Visual refinement: adjusted for aesthetic harmony
       - Proper thickness ratio (~1:4) for professional appearance -->
  <path
    d="M120 100c0 33-27 60-60 60-5 0-10-.6-15-1.8 25-9.5 44-31.5 44-58s-19-48.5-44-58c5-1.2 10-1.8 15-1.8 33 0 60 27 60 60z"
    fill="url(#gold)"
  />

  <!-- Heart - Centered in full moon, positioned on left side of crescent with spacing -->
  <path
    d="M135 70c-10-12-30-12-40 0-10-12-30-12-40 0-12 14-10 35 5 48l35 30 35-30c15-13 17-34 5-48z"
    transform="translate(5, 50) scale(0.5)"
    fill="url(#heartGradient)"
  />
</svg>
